nColumns=19
nRows=40
DataType=double
version=3
OpenSimVersion=4.1
endheader
time	ground_force_1_vx	ground_force_1_vy	ground_force_1_vz	ground_force_1_px	ground_force_1_py	ground_force_1_pz	ground_force_1_mx	ground_force_1_my	ground_force_1_mz	ground_force_2_vx	ground_force_2_vy	ground_force_2_vz	ground_force_2_px	ground_force_2_py	ground_force_2_pz	ground_force_2_mx	ground_force_2_my	ground_force_2_mz
0.87	-6.89073	27.1257	-6.17876	1.07978	0	-0.282865	-0	1.59763	-0	0	0	0	-0.000863665	0	0.000647664	0	0	0
0.88	-18.696	102.371	-15.6442	1.1064	0	-0.298848	-0	4.99359	-0	0	0	0	-0.000863665	0	0.000647664	0	0	0
0.89	-34.967	301.996	-28.2206	1.11908	0	-0.304879	-0	8.31034	-0	0	0	0	-0.000863665	0	0.000647664	0	0	0
0.9	-54.7986	655.836	-35.6897	1.11762	0	-0.309229	-0	10.4732	-0	0	0	0	-0.000863665	0	0.000647664	0	0	0
0.91	-91.3975	1044.26	-26.5914	1.10915	0	-0.313961	-0	10.7214	-0	0	0	0	-0.000863665	0	0.000647664	0	0	0
0.92	-153.852	1304.85	-1.19564	1.09923	0	-0.319003	-0	9.02352	-0	0	0	0	-0.000863665	0	0.000647664	0	0	0
0.93	-224.471	1461.07	24.4146	1.0867	0	-0.323894	-0	6.09773	-0	0	0	0	-0.000863665	0	0.000647664	0	0	0
0.94	-252.825	1618.33	38.8877	1.06551	0	-0.327609	-0	3.00441	-0	0	0	0	-0.000863665	0	0.000647664	0	0	0
0.95	-226.095	1791.77	46.2481	1.03645	0	-0.329089	-0	0.638111	-0	0	0	0	-0.000863665	0	0.000647664	0	0	0
0.96	-175.276	1923.12	51.1318	1.00711	0	-0.329157	0	-0.567507	0	0	0	0	-0.000863665	0	0.000647664	0	0	0
0.97	-124.166	1975.92	51.9632	0.981116	0	-0.329169	0	-0.677069	0	0	0	0	-0.000863665	0	0.000647664	0	0	0
0.98	-76.1891	1956.19	49.4147	0.956974	0	-0.329188	0	-0.119578	0	0	0	0	-0.000863665	0	0.000647664	0	0	0
0.99	-29.7132	1882.95	46.9603	0.932508	0	-0.328853	-0	0.547035	-0	0	0	0	-0.000863665	0	0.000647664	0	0	0
1	13.3047	1765.24	45.5858	0.908022	0	-0.328593	-0	0.882431	-0	0	0	0	-0.000863665	0	0.000647664	0	0	0
1.01	52.311	1605.26	44.937	0.88342	0	-0.328888	-0	0.718076	-0	0	0	0	-0.000863665	0	0.000647664	0	0	0
1.02	88.0547	1403.73	45.3328	0.856904	0	-0.329766	-0	0.176197	-0	0	0	0	-0.000863665	0	0.000647664	0	0	0
1.03	125.593	1164.47	46.1951	0.825601	0	-0.331105	0	-0.427488	0	0	0	0	-0.000863665	0	0.000647664	0	0	0
1.04	162.848	907.243	45.0348	0.788901	0	-0.332493	0	-0.750482	0	0	0	0	-0.000863665	0	0.000647664	0	0	0
1.05	176.092	666.679	40.0963	0.75464	0	-0.333276	0	-0.589097	0	0	0	0	-0.000863665	0	0.000647664	0	0	0
1.06	154.087	464.247	33.051	0.731509	0	-0.333281	-0	0.038136	-0	0	0	0	-0.000863665	0	0.000647664	0	0	0
1.07	118.228	304.145	26.5078	0.715742	0	-0.331717	-0	0.923599	-0	0	0	0	-0.000863665	0	0.000647664	0	0	0
1.08	86.5885	183.066	20.5041	0.694252	0	-0.327773	-0	1.77423	-0	0	0	0	-0.000863665	0	0.000647664	0	0	0
1.09	55.636	95.7346	14.0238	0.665092	0	-0.324771	-0	2.31532	-0	0	0	0	-0.000863665	0	0.000647664	0	0	0
1.1	25.4322	39.3027	7.82332	0.653997	0	-0.335339	-0	2.36881	-0	0	0	0	-0.000863665	0	0.000647664	0	0	0
1.11	7.25204	12.1142	3.65267	0.791988	0	-0.370235	-0	1.91069	-0	0	0	0	-0.000863665	0	0.000647664	0	0	0
1.12	0	0	0	-0.000863665	0	0.000647664	0	0	0	0	0	0	-0.000863665	0	0.000647664	0	0	0
1.13	0	0	0	-0.000863665	0	0.000647664	0	0	0	0	0	0	-0.000863665	0	0.000647664	0	0	0
1.14	0	0	0	-0.000863665	0	0.000647664	0	0	0	0	0	0	-0.000863665	0	0.000647664	0	0	0
1.15	0	0	0	-0.000863665	0	0.000647664	0	0	0	0	0	0	-0.000863665	0	0.000647664	0	0	0
1.16	0	0	0	-0.000863665	0	0.000647664	0	0	0	0	0	0	-0.000863665	0	0.000647664	0	0	0
1.17	0	0	0	-0.000863665	0	0.000647664	0	0	0	0	0	0	-0.000863665	0	0.000647664	0	0	0
1.18	0	0	0	-0.000863665	0	0.000647664	0	0	0	0	0	0	-0.000863665	0	0.000647664	0	0	0
1.19	0	0	0	-0.000863665	0	0.000647664	0	0	0	0	0	0	-0.000863665	0	0.000647664	0	0	0
1.2	0	0	0	-0.000863665	0	0.000647664	0	0	0	0	0	0	-0.000863665	0	0.000647664	0	0	0
1.21	0	0	0	-0.000863665	0	0.000647664	0	0	0	-3.09803	13.7508	2.20832	1.05476	0	-0.348829	0	-0.557586	0
1.22	0	0	0	-0.000863665	0	0.000647664	0	0	0	-10.0205	63.2155	6.33056	1.08385	0	-0.358922	0	-3.60121	0
1.23	0	0	0	-0.000863665	0	0.000647664	0	0	0	-22.5738	216.492	16.1696	1.09575	0	-0.358265	0	-6.94415	0
1.24	0	0	0	-0.000863665	0	0.000647664	0	0	0	-38.796	534.931	31.8095	1.09868	0	-0.352962	0	-9.43841	0
1.25	0	0	0	-0.000863665	0	0.000647664	0	0	0	-71.7173	947.509	43.693	1.09741	0	-0.345594	0	-10.0138	0
1.26	0	0	0	-0.000863665	0	0.000647664	0	0	0	-127.921	1250.46	34.0165	1.09412	0	-0.340726	0	-8.27346	0
